<mxfile host="app.diagrams.net" modified="2023-10-26T08:32:39.974Z" agent="Mozilla/5.0 (X11; Ubuntu; Linux x86_64; rv:109.0) Gecko/20100101 Firefox/119.0" etag="r58TIn6b0h1KcGXPevyk" version="22.0.8" type="google">
  <diagram id="C5RBs43oDa-KdzZeNtuy" name="Page-1">
    <mxGraphModel grid="0" page="0" gridSize="10" guides="1" tooltips="1" connect="1" arrows="1" fold="1" pageScale="1" pageWidth="827" pageHeight="1169" math="0" shadow="0">
      <root>
        <mxCell id="WIyWlLk6GJQsqaUBKTNV-0" />
        <mxCell id="WIyWlLk6GJQsqaUBKTNV-1" parent="WIyWlLk6GJQsqaUBKTNV-0" />
        <mxCell id="wDKFszwRhM4f30pZds1r-0" value="Hebergement" style="swimlane;fontStyle=0;align=center;verticalAlign=top;childLayout=stackLayout;horizontal=1;startSize=31;horizontalStack=0;resizeParent=1;resizeLast=0;collapsible=1;marginBottom=0;rounded=1;shadow=0;strokeWidth=1;labelBackgroundColor=none;fillColor=#F2CC8F;strokeColor=#E07A5F;fontColor=#393C56;" vertex="1" parent="WIyWlLk6GJQsqaUBKTNV-1">
          <mxGeometry x="584" y="1660" width="192" height="169" as="geometry">
            <mxRectangle x="340" y="380" width="170" height="26" as="alternateBounds" />
          </mxGeometry>
        </mxCell>
        <mxCell id="wDKFszwRhM4f30pZds1r-1" value="hebergementID : int" style="text;align=left;verticalAlign=top;spacingLeft=4;spacingRight=4;overflow=hidden;rotatable=0;points=[[0,0.5],[1,0.5]];portConstraint=eastwest;labelBackgroundColor=none;fontColor=#393C56;rounded=1;" vertex="1" parent="wDKFszwRhM4f30pZds1r-0">
          <mxGeometry y="31" width="192" height="26" as="geometry" />
        </mxCell>
        <mxCell id="wDKFszwRhM4f30pZds1r-2" value="" style="line;html=1;strokeWidth=1;align=left;verticalAlign=middle;spacingTop=-1;spacingLeft=3;spacingRight=3;rotatable=0;labelPosition=right;points=[];portConstraint=eastwest;labelBackgroundColor=none;fillColor=#F2CC8F;strokeColor=#E07A5F;fontColor=#393C56;rounded=1;" vertex="1" parent="wDKFszwRhM4f30pZds1r-0">
          <mxGeometry y="57" width="192" height="8" as="geometry" />
        </mxCell>
        <mxCell id="wDKFszwRhM4f30pZds1r-3" value="nomHebergement: str" style="text;align=left;verticalAlign=top;spacingLeft=4;spacingRight=4;overflow=hidden;rotatable=0;points=[[0,0.5],[1,0.5]];portConstraint=eastwest;labelBackgroundColor=none;fontColor=#393C56;rounded=1;" vertex="1" parent="wDKFszwRhM4f30pZds1r-0">
          <mxGeometry y="65" width="192" height="26" as="geometry" />
        </mxCell>
        <mxCell id="wDKFszwRhM4f30pZds1r-4" value="capacitéH : int&#xa;" style="text;align=left;verticalAlign=top;spacingLeft=4;spacingRight=4;overflow=hidden;rotatable=0;points=[[0,0.5],[1,0.5]];portConstraint=eastwest;labelBackgroundColor=none;fontColor=#393C56;rounded=1;" vertex="1" parent="wDKFszwRhM4f30pZds1r-0">
          <mxGeometry y="91" width="192" height="26" as="geometry" />
        </mxCell>
        <mxCell id="wDKFszwRhM4f30pZds1r-5" value="qualitéH : int&#xa;" style="text;align=left;verticalAlign=top;spacingLeft=4;spacingRight=4;overflow=hidden;rotatable=0;points=[[0,0.5],[1,0.5]];portConstraint=eastwest;labelBackgroundColor=none;fontColor=#393C56;rounded=1;" vertex="1" parent="wDKFszwRhM4f30pZds1r-0">
          <mxGeometry y="117" width="192" height="26" as="geometry" />
        </mxCell>
        <mxCell id="roARsqYkyEpCIuC0-eB--0" value="prix : int&#xa;" style="text;align=left;verticalAlign=top;spacingLeft=4;spacingRight=4;overflow=hidden;rotatable=0;points=[[0,0.5],[1,0.5]];portConstraint=eastwest;labelBackgroundColor=none;fontColor=#393C56;rounded=1;" vertex="1" parent="wDKFszwRhM4f30pZds1r-0">
          <mxGeometry y="143" width="192" height="26" as="geometry" />
        </mxCell>
        <mxCell id="wDKFszwRhM4f30pZds1r-12" value="Vehicule" style="swimlane;fontStyle=0;align=center;verticalAlign=top;childLayout=stackLayout;horizontal=1;startSize=31;horizontalStack=0;resizeParent=1;resizeLast=0;collapsible=1;marginBottom=0;rounded=1;shadow=0;strokeWidth=1;labelBackgroundColor=none;fillColor=#F2CC8F;strokeColor=#E07A5F;fontColor=#393C56;" vertex="1" parent="WIyWlLk6GJQsqaUBKTNV-1">
          <mxGeometry x="432" y="2153" width="192" height="117" as="geometry">
            <mxRectangle x="340" y="380" width="170" height="26" as="alternateBounds" />
          </mxGeometry>
        </mxCell>
        <mxCell id="wDKFszwRhM4f30pZds1r-13" value="immatriculation : str " style="text;align=left;verticalAlign=top;spacingLeft=4;spacingRight=4;overflow=hidden;rotatable=0;points=[[0,0.5],[1,0.5]];portConstraint=eastwest;labelBackgroundColor=none;fontColor=#393C56;rounded=1;" vertex="1" parent="wDKFszwRhM4f30pZds1r-12">
          <mxGeometry y="31" width="192" height="26" as="geometry" />
        </mxCell>
        <mxCell id="wDKFszwRhM4f30pZds1r-14" value="" style="line;html=1;strokeWidth=1;align=left;verticalAlign=middle;spacingTop=-1;spacingLeft=3;spacingRight=3;rotatable=0;labelPosition=right;points=[];portConstraint=eastwest;labelBackgroundColor=none;fillColor=#F2CC8F;strokeColor=#E07A5F;fontColor=#393C56;rounded=1;" vertex="1" parent="wDKFszwRhM4f30pZds1r-12">
          <mxGeometry y="57" width="192" height="8" as="geometry" />
        </mxCell>
        <mxCell id="wDKFszwRhM4f30pZds1r-15" value="typeVehicule :str" style="text;align=left;verticalAlign=top;spacingLeft=4;spacingRight=4;overflow=hidden;rotatable=0;points=[[0,0.5],[1,0.5]];portConstraint=eastwest;labelBackgroundColor=none;fontColor=#393C56;rounded=1;" vertex="1" parent="wDKFszwRhM4f30pZds1r-12">
          <mxGeometry y="65" width="192" height="26" as="geometry" />
        </mxCell>
        <mxCell id="wDKFszwRhM4f30pZds1r-16" value="capaciteV : int" style="text;align=left;verticalAlign=top;spacingLeft=4;spacingRight=4;overflow=hidden;rotatable=0;points=[[0,0.5],[1,0.5]];portConstraint=eastwest;labelBackgroundColor=none;fontColor=#393C56;rounded=1;" vertex="1" parent="wDKFszwRhM4f30pZds1r-12">
          <mxGeometry y="91" width="192" height="26" as="geometry" />
        </mxCell>
        <mxCell id="wDKFszwRhM4f30pZds1r-26" value="Musicien" style="swimlane;fontStyle=0;align=center;verticalAlign=top;childLayout=stackLayout;horizontal=1;startSize=31;horizontalStack=0;resizeParent=1;resizeLast=0;collapsible=1;marginBottom=0;rounded=1;shadow=0;strokeWidth=1;labelBackgroundColor=none;fillColor=#F2CC8F;strokeColor=#E07A5F;fontColor=#393C56;" vertex="1" parent="WIyWlLk6GJQsqaUBKTNV-1">
          <mxGeometry x="-872" y="2266" width="192" height="91" as="geometry">
            <mxRectangle x="340" y="380" width="170" height="26" as="alternateBounds" />
          </mxGeometry>
        </mxCell>
        <mxCell id="wDKFszwRhM4f30pZds1r-27" value="musicienID : int" style="text;align=left;verticalAlign=top;spacingLeft=4;spacingRight=4;overflow=hidden;rotatable=0;points=[[0,0.5],[1,0.5]];portConstraint=eastwest;labelBackgroundColor=none;fontColor=#393C56;rounded=1;" vertex="1" parent="wDKFszwRhM4f30pZds1r-26">
          <mxGeometry y="31" width="192" height="26" as="geometry" />
        </mxCell>
        <mxCell id="wDKFszwRhM4f30pZds1r-28" value="" style="line;html=1;strokeWidth=1;align=left;verticalAlign=middle;spacingTop=-1;spacingLeft=3;spacingRight=3;rotatable=0;labelPosition=right;points=[];portConstraint=eastwest;labelBackgroundColor=none;fillColor=#F2CC8F;strokeColor=#E07A5F;fontColor=#393C56;rounded=1;" vertex="1" parent="wDKFszwRhM4f30pZds1r-26">
          <mxGeometry y="57" width="192" height="8" as="geometry" />
        </mxCell>
        <mxCell id="wDKFszwRhM4f30pZds1r-29" value="nomMusicien : str" style="text;align=left;verticalAlign=top;spacingLeft=4;spacingRight=4;overflow=hidden;rotatable=0;points=[[0,0.5],[1,0.5]];portConstraint=eastwest;labelBackgroundColor=none;fontColor=#393C56;rounded=1;" vertex="1" parent="wDKFszwRhM4f30pZds1r-26">
          <mxGeometry y="65" width="192" height="26" as="geometry" />
        </mxCell>
        <mxCell id="wDKFszwRhM4f30pZds1r-36" style="rounded=1;orthogonalLoop=1;jettySize=auto;html=1;entryX=0.5;entryY=0;entryDx=0;entryDy=0;endArrow=none;endFill=0;labelBackgroundColor=none;strokeColor=#E07A5F;fontColor=default;" edge="1" parent="WIyWlLk6GJQsqaUBKTNV-1" source="TiZvxmLFOPFpKtNuPVVe-3" target="wDKFszwRhM4f30pZds1r-26">
          <mxGeometry relative="1" as="geometry">
            <mxPoint x="-708" y="2044" as="sourcePoint" />
          </mxGeometry>
        </mxCell>
        <mxCell id="TiZvxmLFOPFpKtNuPVVe-1" style="rounded=0;orthogonalLoop=1;jettySize=auto;html=1;entryX=0;entryY=0.5;entryDx=0;entryDy=0;endArrow=none;endFill=0;labelBackgroundColor=none;strokeColor=#E07A5F;fontColor=default;" edge="1" parent="WIyWlLk6GJQsqaUBKTNV-1" source="TiZvxmLFOPFpKtNuPVVe-3" target="AJhuhPeZdVxWBHjCiycq-2">
          <mxGeometry relative="1" as="geometry">
            <mxPoint x="-640.2672064777328" y="1974" as="sourcePoint" />
          </mxGeometry>
        </mxCell>
        <mxCell id="wDKFszwRhM4f30pZds1r-38" value="Artiste" style="swimlane;fontStyle=0;align=center;verticalAlign=top;childLayout=stackLayout;horizontal=1;startSize=31;horizontalStack=0;resizeParent=1;resizeLast=0;collapsible=1;marginBottom=0;rounded=1;shadow=0;strokeWidth=1;labelBackgroundColor=none;fillColor=#F2CC8F;strokeColor=#E07A5F;fontColor=#393C56;" vertex="1" parent="WIyWlLk6GJQsqaUBKTNV-1">
          <mxGeometry x="-1435" y="1463" width="192" height="384.5" as="geometry">
            <mxRectangle x="340" y="380" width="170" height="26" as="alternateBounds" />
          </mxGeometry>
        </mxCell>
        <mxCell id="wDKFszwRhM4f30pZds1r-39" value="artisteID : int" style="text;align=left;verticalAlign=top;spacingLeft=4;spacingRight=4;overflow=hidden;rotatable=0;points=[[0,0.5],[1,0.5]];portConstraint=eastwest;labelBackgroundColor=none;fontColor=#393C56;rounded=1;" vertex="1" parent="wDKFszwRhM4f30pZds1r-38">
          <mxGeometry y="31" width="192" height="26" as="geometry" />
        </mxCell>
        <mxCell id="wDKFszwRhM4f30pZds1r-40" value="" style="line;html=1;strokeWidth=1;align=left;verticalAlign=middle;spacingTop=-1;spacingLeft=3;spacingRight=3;rotatable=0;labelPosition=right;points=[];portConstraint=eastwest;labelBackgroundColor=none;fillColor=#F2CC8F;strokeColor=#E07A5F;fontColor=#393C56;rounded=1;" vertex="1" parent="wDKFszwRhM4f30pZds1r-38">
          <mxGeometry y="57" width="192" height="8" as="geometry" />
        </mxCell>
        <mxCell id="wDKFszwRhM4f30pZds1r-41" value="pseudoArtiste : str" style="text;align=left;verticalAlign=top;spacingLeft=4;spacingRight=4;overflow=hidden;rotatable=0;points=[[0,0.5],[1,0.5]];portConstraint=eastwest;labelBackgroundColor=none;fontColor=#393C56;rounded=1;" vertex="1" parent="wDKFszwRhM4f30pZds1r-38">
          <mxGeometry y="65" width="192" height="26" as="geometry" />
        </mxCell>
        <mxCell id="wDKFszwRhM4f30pZds1r-46" value="nomA : str" style="text;align=left;verticalAlign=top;spacingLeft=4;spacingRight=4;overflow=hidden;rotatable=0;points=[[0,0.5],[1,0.5]];portConstraint=eastwest;labelBackgroundColor=none;fontColor=#393C56;rounded=1;" vertex="1" parent="wDKFszwRhM4f30pZds1r-38">
          <mxGeometry y="91" width="192" height="26" as="geometry" />
        </mxCell>
        <mxCell id="wDKFszwRhM4f30pZds1r-42" value="prenomA : str" style="text;align=left;verticalAlign=top;spacingLeft=4;spacingRight=4;overflow=hidden;rotatable=0;points=[[0,0.5],[1,0.5]];portConstraint=eastwest;labelBackgroundColor=none;fontColor=#393C56;rounded=1;" vertex="1" parent="wDKFszwRhM4f30pZds1r-38">
          <mxGeometry y="117" width="192" height="26" as="geometry" />
        </mxCell>
        <mxCell id="wDKFszwRhM4f30pZds1r-43" value="mailA : str" style="text;align=left;verticalAlign=top;spacingLeft=4;spacingRight=4;overflow=hidden;rotatable=0;points=[[0,0.5],[1,0.5]];portConstraint=eastwest;labelBackgroundColor=none;fontColor=#393C56;rounded=1;" vertex="1" parent="wDKFszwRhM4f30pZds1r-38">
          <mxGeometry y="143" width="192" height="26" as="geometry" />
        </mxCell>
        <mxCell id="wDKFszwRhM4f30pZds1r-44" value="DdNA : date" style="text;align=left;verticalAlign=top;spacingLeft=4;spacingRight=4;overflow=hidden;rotatable=0;points=[[0,0.5],[1,0.5]];portConstraint=eastwest;labelBackgroundColor=none;fontColor=#393C56;rounded=1;" vertex="1" parent="wDKFszwRhM4f30pZds1r-38">
          <mxGeometry y="169" width="192" height="26" as="geometry" />
        </mxCell>
        <mxCell id="wDKFszwRhM4f30pZds1r-47" value="LdN : str" style="text;align=left;verticalAlign=top;spacingLeft=4;spacingRight=4;overflow=hidden;rotatable=0;points=[[0,0.5],[1,0.5]];portConstraint=eastwest;labelBackgroundColor=none;fontColor=#393C56;rounded=1;" vertex="1" parent="wDKFszwRhM4f30pZds1r-38">
          <mxGeometry y="195" width="192" height="26" as="geometry" />
        </mxCell>
        <mxCell id="wDKFszwRhM4f30pZds1r-45" value="adresseA : str" style="text;align=left;verticalAlign=top;spacingLeft=4;spacingRight=4;overflow=hidden;rotatable=0;points=[[0,0.5],[1,0.5]];portConstraint=eastwest;labelBackgroundColor=none;fontColor=#393C56;rounded=1;" vertex="1" parent="wDKFszwRhM4f30pZds1r-38">
          <mxGeometry y="221" width="192" height="26" as="geometry" />
        </mxCell>
        <mxCell id="wDKFszwRhM4f30pZds1r-48" value="numSecuriteSociale : int" style="text;align=left;verticalAlign=top;spacingLeft=4;spacingRight=4;overflow=hidden;rotatable=0;points=[[0,0.5],[1,0.5]];portConstraint=eastwest;labelBackgroundColor=none;fontColor=#393C56;rounded=1;" vertex="1" parent="wDKFszwRhM4f30pZds1r-38">
          <mxGeometry y="247" width="192" height="26" as="geometry" />
        </mxCell>
        <mxCell id="wDKFszwRhM4f30pZds1r-62" value="numCNI : int" style="text;align=left;verticalAlign=top;spacingLeft=4;spacingRight=4;overflow=hidden;rotatable=0;points=[[0,0.5],[1,0.5]];portConstraint=eastwest;labelBackgroundColor=none;fontColor=#393C56;rounded=1;" vertex="1" parent="wDKFszwRhM4f30pZds1r-38">
          <mxGeometry y="273" width="192" height="26" as="geometry" />
        </mxCell>
        <mxCell id="wDKFszwRhM4f30pZds1r-63" value="dateDelivranceCNI : date" style="text;align=left;verticalAlign=top;spacingLeft=4;spacingRight=4;overflow=hidden;rotatable=0;points=[[0,0.5],[1,0.5]];portConstraint=eastwest;labelBackgroundColor=none;fontColor=#393C56;rounded=1;" vertex="1" parent="wDKFszwRhM4f30pZds1r-38">
          <mxGeometry y="299" width="192" height="26" as="geometry" />
        </mxCell>
        <mxCell id="wDKFszwRhM4f30pZds1r-64" value="dateExpirationCNI : date" style="text;align=left;verticalAlign=top;spacingLeft=4;spacingRight=4;overflow=hidden;rotatable=0;points=[[0,0.5],[1,0.5]];portConstraint=eastwest;labelBackgroundColor=none;fontColor=#393C56;rounded=1;" vertex="1" parent="wDKFszwRhM4f30pZds1r-38">
          <mxGeometry y="325" width="192" height="26" as="geometry" />
        </mxCell>
        <mxCell id="TiZvxmLFOPFpKtNuPVVe-4" value="DansGroupe:boolean" style="text;align=left;verticalAlign=top;spacingLeft=4;spacingRight=4;overflow=hidden;rotatable=0;points=[[0,0.5],[1,0.5]];portConstraint=eastwest;labelBackgroundColor=none;fontColor=#393C56;rounded=1;" vertex="1" parent="wDKFszwRhM4f30pZds1r-38">
          <mxGeometry y="351" width="192" height="26" as="geometry" />
        </mxCell>
        <mxCell id="wDKFszwRhM4f30pZds1r-65" value="MaterielSalle" style="swimlane;fontStyle=0;align=center;verticalAlign=top;childLayout=stackLayout;horizontal=1;startSize=31;horizontalStack=0;resizeParent=1;resizeLast=0;collapsible=1;marginBottom=0;rounded=1;shadow=0;strokeWidth=1;labelBackgroundColor=none;fillColor=#F2CC8F;strokeColor=#E07A5F;fontColor=#393C56;" vertex="1" parent="WIyWlLk6GJQsqaUBKTNV-1">
          <mxGeometry x="900" y="1230" width="190" height="120" as="geometry">
            <mxRectangle x="340" y="380" width="170" height="26" as="alternateBounds" />
          </mxGeometry>
        </mxCell>
        <mxCell id="wDKFszwRhM4f30pZds1r-66" value="materielSalleID : int" style="text;align=left;verticalAlign=top;spacingLeft=4;spacingRight=4;overflow=hidden;rotatable=0;points=[[0,0.5],[1,0.5]];portConstraint=eastwest;labelBackgroundColor=none;fontColor=#393C56;rounded=1;" vertex="1" parent="wDKFszwRhM4f30pZds1r-65">
          <mxGeometry y="31" width="190" height="26" as="geometry" />
        </mxCell>
        <mxCell id="wDKFszwRhM4f30pZds1r-67" value="" style="line;html=1;strokeWidth=1;align=left;verticalAlign=middle;spacingTop=-1;spacingLeft=3;spacingRight=3;rotatable=0;labelPosition=right;points=[];portConstraint=eastwest;labelBackgroundColor=none;fillColor=#F2CC8F;strokeColor=#E07A5F;fontColor=#393C56;rounded=1;" vertex="1" parent="wDKFszwRhM4f30pZds1r-65">
          <mxGeometry y="57" width="190" height="8" as="geometry" />
        </mxCell>
        <mxCell id="wDKFszwRhM4f30pZds1r-68" value="nomMaterielS : str" style="text;align=left;verticalAlign=top;spacingLeft=4;spacingRight=4;overflow=hidden;rotatable=0;points=[[0,0.5],[1,0.5]];portConstraint=eastwest;labelBackgroundColor=none;fontColor=#393C56;rounded=1;" vertex="1" parent="wDKFszwRhM4f30pZds1r-65">
          <mxGeometry y="65" width="190" height="26" as="geometry" />
        </mxCell>
        <mxCell id="wDKFszwRhM4f30pZds1r-70" value="disponible : bool" style="text;align=left;verticalAlign=top;spacingLeft=4;spacingRight=4;overflow=hidden;rotatable=0;points=[[0,0.5],[1,0.5]];portConstraint=eastwest;labelBackgroundColor=none;fontColor=#393C56;rounded=1;" vertex="1" parent="wDKFszwRhM4f30pZds1r-65">
          <mxGeometry y="91" width="190" height="26" as="geometry" />
        </mxCell>
        <mxCell id="AfBvXeTGOrys0jYBdzUV-38" style="edgeStyle=orthogonalEdgeStyle;rounded=1;orthogonalLoop=1;jettySize=auto;html=1;entryX=0.5;entryY=1;entryDx=0;entryDy=0;endArrow=none;endFill=0;labelBackgroundColor=none;strokeColor=#E07A5F;fontColor=default;" edge="1" parent="WIyWlLk6GJQsqaUBKTNV-1" source="AfBvXeTGOrys0jYBdzUV-22" target="AfBvXeTGOrys0jYBdzUV-37">
          <mxGeometry relative="1" as="geometry" />
        </mxCell>
        <mxCell id="rAAxgLf0EFrrexBY6c0V-7" style="rounded=1;orthogonalLoop=1;jettySize=auto;html=1;entryX=0.5;entryY=0;entryDx=0;entryDy=0;endArrow=none;endFill=0;labelBackgroundColor=none;strokeColor=#E07A5F;fontColor=default;" edge="1" parent="WIyWlLk6GJQsqaUBKTNV-1" source="AfBvXeTGOrys0jYBdzUV-22" target="rAAxgLf0EFrrexBY6c0V-6">
          <mxGeometry relative="1" as="geometry">
            <mxPoint x="-509" y="1470" as="targetPoint" />
          </mxGeometry>
        </mxCell>
        <mxCell id="AfBvXeTGOrys0jYBdzUV-22" value="PersonelTechnique" style="swimlane;fontStyle=0;align=center;verticalAlign=top;childLayout=stackLayout;horizontal=1;startSize=31;horizontalStack=0;resizeParent=1;resizeLast=0;collapsible=1;marginBottom=0;rounded=1;shadow=0;strokeWidth=1;labelBackgroundColor=none;fillColor=#F2CC8F;strokeColor=#E07A5F;fontColor=#393C56;" vertex="1" parent="WIyWlLk6GJQsqaUBKTNV-1">
          <mxGeometry x="-610" y="1250" width="190" height="130" as="geometry">
            <mxRectangle x="340" y="380" width="170" height="26" as="alternateBounds" />
          </mxGeometry>
        </mxCell>
        <mxCell id="AfBvXeTGOrys0jYBdzUV-23" value="PersonnelTechniqueID:int" style="text;align=left;verticalAlign=top;spacingLeft=4;spacingRight=4;overflow=hidden;rotatable=0;points=[[0,0.5],[1,0.5]];portConstraint=eastwest;labelBackgroundColor=none;fontColor=#393C56;rounded=1;" vertex="1" parent="AfBvXeTGOrys0jYBdzUV-22">
          <mxGeometry y="31" width="190" height="26" as="geometry" />
        </mxCell>
        <mxCell id="AfBvXeTGOrys0jYBdzUV-24" value="" style="line;html=1;strokeWidth=1;align=left;verticalAlign=middle;spacingTop=-1;spacingLeft=3;spacingRight=3;rotatable=0;labelPosition=right;points=[];portConstraint=eastwest;labelBackgroundColor=none;fillColor=#F2CC8F;strokeColor=#E07A5F;fontColor=#393C56;rounded=1;" vertex="1" parent="AfBvXeTGOrys0jYBdzUV-22">
          <mxGeometry y="57" width="190" height="8" as="geometry" />
        </mxCell>
        <mxCell id="TyVPyKYXxjt4fqLiTHCA-40" value="&lt;div align=&quot;left&quot;&gt;nomP str&lt;/div&gt;&lt;div align=&quot;left&quot;&gt;prenomP str&lt;br&gt;&lt;/div&gt;&lt;div&gt;&lt;br&gt;&lt;/div&gt;" style="text;html=1;strokeColor=none;fillColor=none;align=left;verticalAlign=middle;whiteSpace=wrap;rounded=0;fontColor=#393C56;labelBackgroundColor=none;" vertex="1" parent="AfBvXeTGOrys0jYBdzUV-22">
          <mxGeometry y="65" width="190" height="65" as="geometry" />
        </mxCell>
        <mxCell id="AfBvXeTGOrys0jYBdzUV-39" style="edgeStyle=orthogonalEdgeStyle;rounded=1;orthogonalLoop=1;jettySize=auto;html=1;entryX=0.5;entryY=0;entryDx=0;entryDy=0;endArrow=none;endFill=0;labelBackgroundColor=none;strokeColor=#E07A5F;fontColor=default;" edge="1" parent="WIyWlLk6GJQsqaUBKTNV-1" source="AfBvXeTGOrys0jYBdzUV-27" target="AfBvXeTGOrys0jYBdzUV-37">
          <mxGeometry relative="1" as="geometry" />
        </mxCell>
        <mxCell id="AfBvXeTGOrys0jYBdzUV-27" value="Role" style="swimlane;fontStyle=0;align=center;verticalAlign=top;childLayout=stackLayout;horizontal=1;startSize=31;horizontalStack=0;resizeParent=1;resizeLast=0;collapsible=1;marginBottom=0;rounded=1;shadow=0;strokeWidth=1;labelBackgroundColor=none;fillColor=#F2CC8F;strokeColor=#E07A5F;fontColor=#393C56;" vertex="1" parent="WIyWlLk6GJQsqaUBKTNV-1">
          <mxGeometry x="-610" y="730" width="190" height="91" as="geometry">
            <mxRectangle x="340" y="380" width="170" height="26" as="alternateBounds" />
          </mxGeometry>
        </mxCell>
        <mxCell id="AfBvXeTGOrys0jYBdzUV-28" value="RoleId: int" style="text;align=left;verticalAlign=top;spacingLeft=4;spacingRight=4;overflow=hidden;rotatable=0;points=[[0,0.5],[1,0.5]];portConstraint=eastwest;labelBackgroundColor=none;fontColor=#393C56;rounded=1;" vertex="1" parent="AfBvXeTGOrys0jYBdzUV-27">
          <mxGeometry y="31" width="190" height="26" as="geometry" />
        </mxCell>
        <mxCell id="AfBvXeTGOrys0jYBdzUV-29" value="" style="line;html=1;strokeWidth=1;align=left;verticalAlign=middle;spacingTop=-1;spacingLeft=3;spacingRight=3;rotatable=0;labelPosition=right;points=[];portConstraint=eastwest;labelBackgroundColor=none;fillColor=#F2CC8F;strokeColor=#E07A5F;fontColor=#393C56;rounded=1;" vertex="1" parent="AfBvXeTGOrys0jYBdzUV-27">
          <mxGeometry y="57" width="190" height="8" as="geometry" />
        </mxCell>
        <mxCell id="AfBvXeTGOrys0jYBdzUV-34" value="NomRole: str" style="text;align=left;verticalAlign=top;spacingLeft=4;spacingRight=4;overflow=hidden;rotatable=0;points=[[0,0.5],[1,0.5]];portConstraint=eastwest;labelBackgroundColor=none;fontColor=#393C56;rounded=1;" vertex="1" parent="AfBvXeTGOrys0jYBdzUV-27">
          <mxGeometry y="65" width="190" height="26" as="geometry" />
        </mxCell>
        <mxCell id="AfBvXeTGOrys0jYBdzUV-37" value="RolePersonel" style="shape=rhombus;perimeter=rhombusPerimeter;whiteSpace=wrap;html=1;align=center;fillStyle=auto;labelBackgroundColor=none;fillColor=#F2CC8F;strokeColor=#E07A5F;fontColor=#393C56;rounded=1;" vertex="1" parent="WIyWlLk6GJQsqaUBKTNV-1">
          <mxGeometry x="-595" y="1040" width="160" height="100" as="geometry" />
        </mxCell>
        <mxCell id="AfBvXeTGOrys0jYBdzUV-46" style="rounded=1;orthogonalLoop=1;jettySize=auto;html=1;entryX=0.049;entryY=0.526;entryDx=0;entryDy=0;endArrow=none;endFill=0;labelBackgroundColor=none;strokeColor=#E07A5F;fontColor=default;entryPerimeter=0;" edge="1" parent="WIyWlLk6GJQsqaUBKTNV-1" source="AfBvXeTGOrys0jYBdzUV-40" target="AfBvXeTGOrys0jYBdzUV-45">
          <mxGeometry relative="1" as="geometry" />
        </mxCell>
        <mxCell id="AfBvXeTGOrys0jYBdzUV-60" style="edgeStyle=orthogonalEdgeStyle;rounded=1;orthogonalLoop=1;jettySize=auto;html=1;entryX=0.5;entryY=1;entryDx=0;entryDy=0;endArrow=none;endFill=0;labelBackgroundColor=none;strokeColor=#E07A5F;fontColor=default;" edge="1" parent="WIyWlLk6GJQsqaUBKTNV-1" source="AfBvXeTGOrys0jYBdzUV-40" target="AfBvXeTGOrys0jYBdzUV-59">
          <mxGeometry relative="1" as="geometry" />
        </mxCell>
        <mxCell id="rAAxgLf0EFrrexBY6c0V-20" style="rounded=1;orthogonalLoop=1;jettySize=auto;html=1;entryX=0.511;entryY=0.037;entryDx=0;entryDy=0;endArrow=none;endFill=0;labelBackgroundColor=none;strokeColor=#E07A5F;fontColor=default;entryPerimeter=0;" edge="1" parent="WIyWlLk6GJQsqaUBKTNV-1" source="AfBvXeTGOrys0jYBdzUV-40" target="rAAxgLf0EFrrexBY6c0V-18">
          <mxGeometry relative="1" as="geometry" />
        </mxCell>
        <mxCell id="rAAxgLf0EFrrexBY6c0V-44" style="rounded=1;orthogonalLoop=1;jettySize=auto;html=1;entryX=0.036;entryY=0.506;entryDx=0;entryDy=0;endArrow=none;endFill=0;labelBackgroundColor=none;strokeColor=#E07A5F;fontColor=default;entryPerimeter=0;exitX=0.965;exitY=0.972;exitDx=0;exitDy=0;exitPerimeter=0;" edge="1" parent="WIyWlLk6GJQsqaUBKTNV-1" source="n8KyGZuKO7ytAvBbDKDA-39" target="rAAxgLf0EFrrexBY6c0V-43">
          <mxGeometry relative="1" as="geometry">
            <mxPoint x="260" y="1430" as="sourcePoint" />
          </mxGeometry>
        </mxCell>
        <mxCell id="AfBvXeTGOrys0jYBdzUV-40" value="Salle" style="swimlane;fontStyle=0;align=center;verticalAlign=top;childLayout=stackLayout;horizontal=1;startSize=31;horizontalStack=0;resizeParent=1;resizeLast=0;collapsible=1;marginBottom=0;rounded=1;shadow=0;strokeWidth=1;labelBackgroundColor=none;fillColor=#F2CC8F;strokeColor=#E07A5F;fontColor=#393C56;" vertex="1" parent="WIyWlLk6GJQsqaUBKTNV-1">
          <mxGeometry x="81" y="1250" width="190" height="195" as="geometry">
            <mxRectangle x="340" y="380" width="170" height="26" as="alternateBounds" />
          </mxGeometry>
        </mxCell>
        <mxCell id="AfBvXeTGOrys0jYBdzUV-41" value="SalleID : int" style="text;align=left;verticalAlign=top;spacingLeft=4;spacingRight=4;overflow=hidden;rotatable=0;points=[[0,0.5],[1,0.5]];portConstraint=eastwest;labelBackgroundColor=none;fontColor=#393C56;rounded=1;" vertex="1" parent="AfBvXeTGOrys0jYBdzUV-40">
          <mxGeometry y="31" width="190" height="26" as="geometry" />
        </mxCell>
        <mxCell id="AfBvXeTGOrys0jYBdzUV-42" value="" style="line;html=1;strokeWidth=1;align=left;verticalAlign=middle;spacingTop=-1;spacingLeft=3;spacingRight=3;rotatable=0;labelPosition=right;points=[];portConstraint=eastwest;labelBackgroundColor=none;fillColor=#F2CC8F;strokeColor=#E07A5F;fontColor=#393C56;rounded=1;" vertex="1" parent="AfBvXeTGOrys0jYBdzUV-40">
          <mxGeometry y="57" width="190" height="8" as="geometry" />
        </mxCell>
        <mxCell id="AfBvXeTGOrys0jYBdzUV-43" value="NomSalle: str" style="text;align=left;verticalAlign=top;spacingLeft=4;spacingRight=4;overflow=hidden;rotatable=0;points=[[0,0.5],[1,0.5]];portConstraint=eastwest;labelBackgroundColor=none;fontColor=#393C56;rounded=1;" vertex="1" parent="AfBvXeTGOrys0jYBdzUV-40">
          <mxGeometry y="65" width="190" height="26" as="geometry" />
        </mxCell>
        <mxCell id="AfBvXeTGOrys0jYBdzUV-44" value="CapacitéTotaleSalle:str&#xa;" style="text;align=left;verticalAlign=top;spacingLeft=4;spacingRight=4;overflow=hidden;rotatable=0;points=[[0,0.5],[1,0.5]];portConstraint=eastwest;labelBackgroundColor=none;fontColor=#393C56;rounded=1;" vertex="1" parent="AfBvXeTGOrys0jYBdzUV-40">
          <mxGeometry y="91" width="190" height="26" as="geometry" />
        </mxCell>
        <mxCell id="n8KyGZuKO7ytAvBbDKDA-25" value="planSalle:blob" style="text;align=left;verticalAlign=top;spacingLeft=4;spacingRight=4;overflow=hidden;rotatable=0;points=[[0,0.5],[1,0.5]];portConstraint=eastwest;labelBackgroundColor=none;fontColor=#393C56;rounded=1;" vertex="1" parent="AfBvXeTGOrys0jYBdzUV-40">
          <mxGeometry y="117" width="190" height="26" as="geometry" />
        </mxCell>
        <mxCell id="n8KyGZuKO7ytAvBbDKDA-40" value="DimensionOuverture:double" style="text;align=left;verticalAlign=top;spacingLeft=4;spacingRight=4;overflow=hidden;rotatable=0;points=[[0,0.5],[1,0.5]];portConstraint=eastwest;labelBackgroundColor=none;fontColor=#393C56;rounded=1;" vertex="1" parent="AfBvXeTGOrys0jYBdzUV-40">
          <mxGeometry y="143" width="190" height="26" as="geometry" />
        </mxCell>
        <mxCell id="n8KyGZuKO7ytAvBbDKDA-39" value="DimensionProfondeur:double" style="text;align=left;verticalAlign=top;spacingLeft=4;spacingRight=4;overflow=hidden;rotatable=0;points=[[0,0.5],[1,0.5]];portConstraint=eastwest;labelBackgroundColor=none;fontColor=#393C56;rounded=1;" vertex="1" parent="AfBvXeTGOrys0jYBdzUV-40">
          <mxGeometry y="169" width="190" height="26" as="geometry" />
        </mxCell>
        <mxCell id="AfBvXeTGOrys0jYBdzUV-47" style="rounded=1;orthogonalLoop=1;jettySize=auto;html=1;entryX=0;entryY=0.5;entryDx=0;entryDy=0;endArrow=none;endFill=0;labelBackgroundColor=none;strokeColor=#E07A5F;fontColor=default;" edge="1" parent="WIyWlLk6GJQsqaUBKTNV-1" source="AfBvXeTGOrys0jYBdzUV-45" target="wDKFszwRhM4f30pZds1r-68">
          <mxGeometry relative="1" as="geometry" />
        </mxCell>
        <mxCell id="AfBvXeTGOrys0jYBdzUV-45" value="avoir" style="shape=rhombus;perimeter=rhombusPerimeter;whiteSpace=wrap;html=1;align=center;fillStyle=auto;labelBackgroundColor=none;fillColor=#F2CC8F;strokeColor=#E07A5F;fontColor=#393C56;rounded=1;" vertex="1" parent="WIyWlLk6GJQsqaUBKTNV-1">
          <mxGeometry x="500" y="1255" width="160" height="100" as="geometry" />
        </mxCell>
        <mxCell id="AfBvXeTGOrys0jYBdzUV-49" value="TypePlace" style="swimlane;fontStyle=0;align=center;verticalAlign=top;childLayout=stackLayout;horizontal=1;startSize=31;horizontalStack=0;resizeParent=1;resizeLast=0;collapsible=1;marginBottom=0;rounded=1;shadow=0;strokeWidth=1;labelBackgroundColor=none;fillColor=#F2CC8F;strokeColor=#E07A5F;fontColor=#393C56;" vertex="1" parent="WIyWlLk6GJQsqaUBKTNV-1">
          <mxGeometry x="-114" y="730" width="190" height="120" as="geometry">
            <mxRectangle x="340" y="380" width="170" height="26" as="alternateBounds" />
          </mxGeometry>
        </mxCell>
        <mxCell id="AfBvXeTGOrys0jYBdzUV-50" value="TypePlaceID : int" style="text;align=left;verticalAlign=top;spacingLeft=4;spacingRight=4;overflow=hidden;rotatable=0;points=[[0,0.5],[1,0.5]];portConstraint=eastwest;labelBackgroundColor=none;fontColor=#393C56;rounded=1;" vertex="1" parent="AfBvXeTGOrys0jYBdzUV-49">
          <mxGeometry y="31" width="190" height="26" as="geometry" />
        </mxCell>
        <mxCell id="AfBvXeTGOrys0jYBdzUV-51" value="" style="line;html=1;strokeWidth=1;align=left;verticalAlign=middle;spacingTop=-1;spacingLeft=3;spacingRight=3;rotatable=0;labelPosition=right;points=[];portConstraint=eastwest;labelBackgroundColor=none;fillColor=#F2CC8F;strokeColor=#E07A5F;fontColor=#393C56;rounded=1;" vertex="1" parent="AfBvXeTGOrys0jYBdzUV-49">
          <mxGeometry y="57" width="190" height="8" as="geometry" />
        </mxCell>
        <mxCell id="AfBvXeTGOrys0jYBdzUV-52" value="NomPlace:str" style="text;align=left;verticalAlign=top;spacingLeft=4;spacingRight=4;overflow=hidden;rotatable=0;points=[[0,0.5],[1,0.5]];portConstraint=eastwest;labelBackgroundColor=none;fontColor=#393C56;rounded=1;" vertex="1" parent="AfBvXeTGOrys0jYBdzUV-49">
          <mxGeometry y="65" width="190" height="26" as="geometry" />
        </mxCell>
        <mxCell id="AfBvXeTGOrys0jYBdzUV-53" value="DescriptionP: text" style="text;align=left;verticalAlign=top;spacingLeft=4;spacingRight=4;overflow=hidden;rotatable=0;points=[[0,0.5],[1,0.5]];portConstraint=eastwest;labelBackgroundColor=none;fontColor=#393C56;rounded=1;" vertex="1" parent="AfBvXeTGOrys0jYBdzUV-49">
          <mxGeometry y="91" width="190" height="26" as="geometry" />
        </mxCell>
        <mxCell id="AfBvXeTGOrys0jYBdzUV-61" style="rounded=1;orthogonalLoop=1;jettySize=auto;html=1;entryX=0.5;entryY=1;entryDx=0;entryDy=0;endArrow=none;endFill=0;labelBackgroundColor=none;strokeColor=#E07A5F;fontColor=default;" edge="1" parent="WIyWlLk6GJQsqaUBKTNV-1" source="AfBvXeTGOrys0jYBdzUV-59" target="AfBvXeTGOrys0jYBdzUV-49">
          <mxGeometry relative="1" as="geometry" />
        </mxCell>
        <mxCell id="AfBvXeTGOrys0jYBdzUV-59" value="&lt;div&gt;&lt;b&gt;SalleTypePlace&lt;/b&gt;&lt;/div&gt;&lt;div&gt;capacitéS : int&lt;br&gt;&lt;/div&gt;" style="shape=associativeEntity;whiteSpace=wrap;html=1;align=center;labelBackgroundColor=none;fillColor=#F2CC8F;strokeColor=#E07A5F;fontColor=#393C56;rounded=1;" vertex="1" parent="WIyWlLk6GJQsqaUBKTNV-1">
          <mxGeometry x="106" y="1050" width="140" height="100" as="geometry" />
        </mxCell>
        <mxCell id="rAAxgLf0EFrrexBY6c0V-8" style="rounded=1;orthogonalLoop=1;jettySize=auto;html=1;entryX=0.5;entryY=1;entryDx=0;entryDy=0;endArrow=none;endFill=0;labelBackgroundColor=none;strokeColor=#E07A5F;fontColor=default;" edge="1" parent="WIyWlLk6GJQsqaUBKTNV-1" source="09vynYddfmvWjdpuQkQc-38" target="rAAxgLf0EFrrexBY6c0V-6">
          <mxGeometry relative="1" as="geometry" />
        </mxCell>
        <mxCell id="rAAxgLf0EFrrexBY6c0V-10" style="rounded=1;orthogonalLoop=1;jettySize=auto;html=1;entryX=0.5;entryY=0;entryDx=0;entryDy=0;endArrow=none;endFill=0;labelBackgroundColor=none;strokeColor=#E07A5F;fontColor=default;" edge="1" parent="WIyWlLk6GJQsqaUBKTNV-1" source="09vynYddfmvWjdpuQkQc-38" target="rAAxgLf0EFrrexBY6c0V-9">
          <mxGeometry relative="1" as="geometry" />
        </mxCell>
        <mxCell id="rAAxgLf0EFrrexBY6c0V-19" style="rounded=1;orthogonalLoop=1;jettySize=auto;html=1;exitX=1;exitY=0;exitDx=0;exitDy=0;entryX=0.5;entryY=0.968;entryDx=0;entryDy=0;endArrow=none;endFill=0;labelBackgroundColor=none;strokeColor=#E07A5F;fontColor=default;entryPerimeter=0;" edge="1" parent="WIyWlLk6GJQsqaUBKTNV-1" source="09vynYddfmvWjdpuQkQc-38" target="rAAxgLf0EFrrexBY6c0V-18">
          <mxGeometry relative="1" as="geometry" />
        </mxCell>
        <mxCell id="rAAxgLf0EFrrexBY6c0V-38" style="rounded=1;orthogonalLoop=1;jettySize=auto;html=1;entryX=0;entryY=0.5;entryDx=0;entryDy=0;endArrow=none;endFill=0;labelBackgroundColor=none;strokeColor=#E07A5F;fontColor=default;" edge="1" parent="WIyWlLk6GJQsqaUBKTNV-1" source="09vynYddfmvWjdpuQkQc-38" target="rAAxgLf0EFrrexBY6c0V-37">
          <mxGeometry relative="1" as="geometry" />
        </mxCell>
        <mxCell id="09vynYddfmvWjdpuQkQc-38" value="Concert" style="swimlane;fontStyle=0;align=center;verticalAlign=top;childLayout=stackLayout;horizontal=1;startSize=31;horizontalStack=0;resizeParent=1;resizeLast=0;collapsible=1;marginBottom=0;rounded=1;shadow=0;strokeWidth=1;labelBackgroundColor=none;fillColor=#F2CC8F;strokeColor=#E07A5F;fontColor=#393C56;" vertex="1" parent="WIyWlLk6GJQsqaUBKTNV-1">
          <mxGeometry x="-230" y="1600" width="190" height="211" as="geometry">
            <mxRectangle x="340" y="380" width="170" height="26" as="alternateBounds" />
          </mxGeometry>
        </mxCell>
        <mxCell id="09vynYddfmvWjdpuQkQc-39" value="ConcertID int " style="text;align=left;verticalAlign=top;spacingLeft=4;spacingRight=4;overflow=hidden;rotatable=0;points=[[0,0.5],[1,0.5]];portConstraint=eastwest;labelBackgroundColor=none;fontColor=#393C56;rounded=1;" vertex="1" parent="09vynYddfmvWjdpuQkQc-38">
          <mxGeometry y="31" width="190" height="26" as="geometry" />
        </mxCell>
        <mxCell id="09vynYddfmvWjdpuQkQc-40" value="" style="line;html=1;strokeWidth=1;align=left;verticalAlign=middle;spacingTop=-1;spacingLeft=3;spacingRight=3;rotatable=0;labelPosition=right;points=[];portConstraint=eastwest;labelBackgroundColor=none;fillColor=#F2CC8F;strokeColor=#E07A5F;fontColor=#393C56;rounded=1;" vertex="1" parent="09vynYddfmvWjdpuQkQc-38">
          <mxGeometry y="57" width="190" height="8" as="geometry" />
        </mxCell>
        <mxCell id="09vynYddfmvWjdpuQkQc-41" value="nomConcert str" style="text;align=left;verticalAlign=top;spacingLeft=4;spacingRight=4;overflow=hidden;rotatable=0;points=[[0,0.5],[1,0.5]];portConstraint=eastwest;labelBackgroundColor=none;fontColor=#393C56;rounded=1;" vertex="1" parent="09vynYddfmvWjdpuQkQc-38">
          <mxGeometry y="65" width="190" height="26" as="geometry" />
        </mxCell>
        <mxCell id="09vynYddfmvWjdpuQkQc-42" value="dateDebutConcert date&#xa;&#xa;DateFinConcert date&#xa;&#xa;" style="text;align=left;verticalAlign=top;spacingLeft=4;spacingRight=4;overflow=hidden;rotatable=0;points=[[0,0.5],[1,0.5]];portConstraint=eastwest;labelBackgroundColor=none;fontColor=#393C56;rounded=1;" vertex="1" parent="09vynYddfmvWjdpuQkQc-38">
          <mxGeometry y="91" width="190" height="58" as="geometry" />
        </mxCell>
        <mxCell id="AJhuhPeZdVxWBHjCiycq-2" value="ficheTechnique:TEXT" style="text;align=left;verticalAlign=top;spacingLeft=4;spacingRight=4;overflow=hidden;rotatable=0;points=[[0,0.5],[1,0.5]];portConstraint=eastwest;labelBackgroundColor=none;fontColor=#393C56;rounded=1;" vertex="1" parent="09vynYddfmvWjdpuQkQc-38">
          <mxGeometry y="149" width="190" height="26" as="geometry" />
        </mxCell>
        <mxCell id="09vynYddfmvWjdpuQkQc-31" value="catering: TEXT" style="text;align=left;verticalAlign=top;spacingLeft=4;spacingRight=4;overflow=hidden;rotatable=0;points=[[0,0.5],[1,0.5]];portConstraint=eastwest;labelBackgroundColor=none;fontColor=#393C56;rounded=1;" vertex="1" parent="09vynYddfmvWjdpuQkQc-38">
          <mxGeometry y="175" width="190" height="26" as="geometry" />
        </mxCell>
        <mxCell id="n8KyGZuKO7ytAvBbDKDA-10" value="Lieu" style="swimlane;fontStyle=0;align=center;verticalAlign=top;childLayout=stackLayout;horizontal=1;startSize=25;horizontalStack=0;resizeParent=1;resizeLast=0;collapsible=1;marginBottom=0;rounded=1;shadow=0;strokeWidth=1;labelBackgroundColor=none;fillColor=#F2CC8F;strokeColor=#E07A5F;fontColor=#393C56;" vertex="1" parent="WIyWlLk6GJQsqaUBKTNV-1">
          <mxGeometry x="630" y="1422.5" width="192" height="137.5" as="geometry">
            <mxRectangle x="340" y="380" width="170" height="26" as="alternateBounds" />
          </mxGeometry>
        </mxCell>
        <mxCell id="n8KyGZuKO7ytAvBbDKDA-11" value="LieuID : int" style="text;align=left;verticalAlign=top;spacingLeft=4;spacingRight=4;overflow=hidden;rotatable=0;points=[[0,0.5],[1,0.5]];portConstraint=eastwest;labelBackgroundColor=none;fontColor=#393C56;rounded=1;" vertex="1" parent="n8KyGZuKO7ytAvBbDKDA-10">
          <mxGeometry y="25" width="192" height="26" as="geometry" />
        </mxCell>
        <mxCell id="n8KyGZuKO7ytAvBbDKDA-12" value="" style="line;html=1;strokeWidth=1;align=left;verticalAlign=middle;spacingTop=-1;spacingLeft=3;spacingRight=3;rotatable=0;labelPosition=right;points=[];portConstraint=eastwest;labelBackgroundColor=none;fillColor=#F2CC8F;strokeColor=#E07A5F;fontColor=#393C56;rounded=1;" vertex="1" parent="n8KyGZuKO7ytAvBbDKDA-10">
          <mxGeometry y="51" width="192" height="8" as="geometry" />
        </mxCell>
        <mxCell id="n8KyGZuKO7ytAvBbDKDA-13" value="nomVille: str" style="text;align=left;verticalAlign=top;spacingLeft=4;spacingRight=4;overflow=hidden;rotatable=0;points=[[0,0.5],[1,0.5]];portConstraint=eastwest;labelBackgroundColor=none;fontColor=#393C56;rounded=1;" vertex="1" parent="n8KyGZuKO7ytAvBbDKDA-10">
          <mxGeometry y="59" width="192" height="26" as="geometry" />
        </mxCell>
        <mxCell id="n8KyGZuKO7ytAvBbDKDA-14" value="Adresse:str" style="text;align=left;verticalAlign=top;spacingLeft=4;spacingRight=4;overflow=hidden;rotatable=0;points=[[0,0.5],[1,0.5]];portConstraint=eastwest;labelBackgroundColor=none;fontColor=#393C56;rounded=1;" vertex="1" parent="n8KyGZuKO7ytAvBbDKDA-10">
          <mxGeometry y="85" width="192" height="26" as="geometry" />
        </mxCell>
        <mxCell id="n8KyGZuKO7ytAvBbDKDA-15" value="departement: INT" style="text;align=left;verticalAlign=top;spacingLeft=4;spacingRight=4;overflow=hidden;rotatable=0;points=[[0,0.5],[1,0.5]];portConstraint=eastwest;labelBackgroundColor=none;fontColor=#393C56;rounded=1;" vertex="1" parent="n8KyGZuKO7ytAvBbDKDA-10">
          <mxGeometry y="111" width="192" height="26" as="geometry" />
        </mxCell>
        <mxCell id="n8KyGZuKO7ytAvBbDKDA-16" value="ORGANISATION" style="swimlane;fontStyle=0;align=center;verticalAlign=top;childLayout=stackLayout;horizontal=1;startSize=31;horizontalStack=0;resizeParent=1;resizeLast=0;collapsible=1;marginBottom=0;rounded=1;shadow=0;strokeWidth=1;labelBackgroundColor=none;fillColor=#F2CC8F;strokeColor=#E07A5F;fontColor=#393C56;" vertex="1" parent="WIyWlLk6GJQsqaUBKTNV-1">
          <mxGeometry x="-338" y="2105" width="192" height="117" as="geometry">
            <mxRectangle x="340" y="380" width="170" height="26" as="alternateBounds" />
          </mxGeometry>
        </mxCell>
        <mxCell id="n8KyGZuKO7ytAvBbDKDA-17" value="nomORGA : str" style="text;align=left;verticalAlign=top;spacingLeft=4;spacingRight=4;overflow=hidden;rotatable=0;points=[[0,0.5],[1,0.5]];portConstraint=eastwest;labelBackgroundColor=none;fontColor=#393C56;rounded=1;" vertex="1" parent="n8KyGZuKO7ytAvBbDKDA-16">
          <mxGeometry y="31" width="192" height="26" as="geometry" />
        </mxCell>
        <mxCell id="n8KyGZuKO7ytAvBbDKDA-18" value="" style="line;html=1;strokeWidth=1;align=left;verticalAlign=middle;spacingTop=-1;spacingLeft=3;spacingRight=3;rotatable=0;labelPosition=right;points=[];portConstraint=eastwest;labelBackgroundColor=none;fillColor=#F2CC8F;strokeColor=#E07A5F;fontColor=#393C56;rounded=1;" vertex="1" parent="n8KyGZuKO7ytAvBbDKDA-16">
          <mxGeometry y="57" width="192" height="8" as="geometry" />
        </mxCell>
        <mxCell id="n8KyGZuKO7ytAvBbDKDA-19" value="MotDePasse: str" style="text;align=left;verticalAlign=top;spacingLeft=4;spacingRight=4;overflow=hidden;rotatable=0;points=[[0,0.5],[1,0.5]];portConstraint=eastwest;labelBackgroundColor=none;fontColor=#393C56;rounded=1;" vertex="1" parent="n8KyGZuKO7ytAvBbDKDA-16">
          <mxGeometry y="65" width="192" height="26" as="geometry" />
        </mxCell>
        <mxCell id="n8KyGZuKO7ytAvBbDKDA-41" value="type:str" style="text;align=left;verticalAlign=top;spacingLeft=4;spacingRight=4;overflow=hidden;rotatable=0;points=[[0,0.5],[1,0.5]];portConstraint=eastwest;labelBackgroundColor=none;fontColor=#393C56;rounded=1;" vertex="1" parent="n8KyGZuKO7ytAvBbDKDA-16">
          <mxGeometry y="91" width="192" height="26" as="geometry" />
        </mxCell>
        <mxCell id="wDKFszwRhM4f30pZds1r-86" value="MaterielArtiste" style="swimlane;fontStyle=0;align=center;verticalAlign=top;childLayout=stackLayout;horizontal=1;startSize=31;horizontalStack=0;resizeParent=1;resizeLast=0;collapsible=1;marginBottom=0;rounded=1;shadow=0;strokeWidth=1;labelBackgroundColor=none;fillColor=#F2CC8F;strokeColor=#E07A5F;fontColor=#393C56;" vertex="1" parent="WIyWlLk6GJQsqaUBKTNV-1">
          <mxGeometry x="-958" y="1125" width="190" height="117" as="geometry">
            <mxRectangle x="340" y="380" width="170" height="26" as="alternateBounds" />
          </mxGeometry>
        </mxCell>
        <mxCell id="wDKFszwRhM4f30pZds1r-87" value="materielArtisteID : int" style="text;align=left;verticalAlign=top;spacingLeft=4;spacingRight=4;overflow=hidden;rotatable=0;points=[[0,0.5],[1,0.5]];portConstraint=eastwest;labelBackgroundColor=none;fontColor=#393C56;rounded=1;" vertex="1" parent="wDKFszwRhM4f30pZds1r-86">
          <mxGeometry y="31" width="190" height="26" as="geometry" />
        </mxCell>
        <mxCell id="wDKFszwRhM4f30pZds1r-88" value="" style="line;html=1;strokeWidth=1;align=left;verticalAlign=middle;spacingTop=-1;spacingLeft=3;spacingRight=3;rotatable=0;labelPosition=right;points=[];portConstraint=eastwest;labelBackgroundColor=none;fillColor=#F2CC8F;strokeColor=#E07A5F;fontColor=#393C56;rounded=1;" vertex="1" parent="wDKFszwRhM4f30pZds1r-86">
          <mxGeometry y="57" width="190" height="8" as="geometry" />
        </mxCell>
        <mxCell id="wDKFszwRhM4f30pZds1r-89" value="nomMaterielArt : str" style="text;align=left;verticalAlign=top;spacingLeft=4;spacingRight=4;overflow=hidden;rotatable=0;points=[[0,0.5],[1,0.5]];portConstraint=eastwest;labelBackgroundColor=none;fontColor=#393C56;rounded=1;" vertex="1" parent="wDKFszwRhM4f30pZds1r-86">
          <mxGeometry y="65" width="190" height="26" as="geometry" />
        </mxCell>
        <mxCell id="wDKFszwRhM4f30pZds1r-90" value="disponible : bool" style="text;align=left;verticalAlign=top;spacingLeft=4;spacingRight=4;overflow=hidden;rotatable=0;points=[[0,0.5],[1,0.5]];portConstraint=eastwest;labelBackgroundColor=none;fontColor=#393C56;rounded=1;" vertex="1" parent="wDKFszwRhM4f30pZds1r-86">
          <mxGeometry y="91" width="190" height="26" as="geometry" />
        </mxCell>
        <mxCell id="rAAxgLf0EFrrexBY6c0V-61" style="rounded=1;orthogonalLoop=1;jettySize=auto;html=1;entryX=0.5;entryY=1;entryDx=0;entryDy=0;endArrow=none;endFill=0;labelBackgroundColor=none;strokeColor=#E07A5F;fontColor=default;exitX=1;exitY=0;exitDx=0;exitDy=0;" edge="1" parent="WIyWlLk6GJQsqaUBKTNV-1" source="AfBvXeTGOrys0jYBdzUV-40" target="rAAxgLf0EFrrexBY6c0V-60">
          <mxGeometry relative="1" as="geometry">
            <mxPoint x="626.5862068965516" y="1204" as="sourcePoint" />
          </mxGeometry>
        </mxCell>
        <mxCell id="a5jgiMxUOnsnWHItlYc4-2" value="1,n" style="text;html=1;strokeColor=none;fillColor=none;align=center;verticalAlign=middle;whiteSpace=wrap;rounded=1;labelBackgroundColor=none;fontColor=#393C56;" vertex="1" parent="WIyWlLk6GJQsqaUBKTNV-1">
          <mxGeometry x="91" y="1210" width="60" height="30" as="geometry" />
        </mxCell>
        <mxCell id="a5jgiMxUOnsnWHItlYc4-3" value="0,n" style="text;html=1;strokeColor=none;fillColor=none;align=center;verticalAlign=middle;whiteSpace=wrap;rounded=1;labelBackgroundColor=none;fontColor=#393C56;" vertex="1" parent="WIyWlLk6GJQsqaUBKTNV-1">
          <mxGeometry x="-4" y="860" width="60" height="30" as="geometry" />
        </mxCell>
        <mxCell id="a5jgiMxUOnsnWHItlYc4-4" value="0,n" style="text;html=1;strokeColor=none;fillColor=none;align=center;verticalAlign=middle;whiteSpace=wrap;rounded=1;labelBackgroundColor=none;fontColor=#393C56;" vertex="1" parent="WIyWlLk6GJQsqaUBKTNV-1">
          <mxGeometry x="271" y="1300" width="60" height="30" as="geometry" />
        </mxCell>
        <mxCell id="a5jgiMxUOnsnWHItlYc4-5" value="1,1" style="text;html=1;strokeColor=none;fillColor=none;align=center;verticalAlign=middle;whiteSpace=wrap;rounded=1;labelBackgroundColor=none;fontColor=#393C56;" vertex="1" parent="WIyWlLk6GJQsqaUBKTNV-1">
          <mxGeometry x="840" y="1270" width="60" height="30" as="geometry" />
        </mxCell>
        <mxCell id="n8KyGZuKO7ytAvBbDKDA-54" value="plan" style="swimlane;fontStyle=0;align=center;verticalAlign=top;childLayout=stackLayout;horizontal=1;startSize=31;horizontalStack=0;resizeParent=1;resizeLast=0;collapsible=1;marginBottom=0;rounded=1;shadow=0;strokeWidth=1;labelBackgroundColor=none;fillColor=#F2CC8F;strokeColor=#E07A5F;fontColor=#393C56;" vertex="1" parent="WIyWlLk6GJQsqaUBKTNV-1">
          <mxGeometry x="433" y="754" width="192" height="120" as="geometry">
            <mxRectangle x="340" y="380" width="170" height="26" as="alternateBounds" />
          </mxGeometry>
        </mxCell>
        <mxCell id="n8KyGZuKO7ytAvBbDKDA-55" value="PlanID:int" style="text;align=left;verticalAlign=top;spacingLeft=4;spacingRight=4;overflow=hidden;rotatable=0;points=[[0,0.5],[1,0.5]];portConstraint=eastwest;labelBackgroundColor=none;fontColor=#393C56;rounded=1;" vertex="1" parent="n8KyGZuKO7ytAvBbDKDA-54">
          <mxGeometry y="31" width="192" height="26" as="geometry" />
        </mxCell>
        <mxCell id="n8KyGZuKO7ytAvBbDKDA-57" value="" style="line;html=1;strokeWidth=1;align=left;verticalAlign=middle;spacingTop=-1;spacingLeft=3;spacingRight=3;rotatable=0;labelPosition=right;points=[];portConstraint=eastwest;labelBackgroundColor=none;fillColor=#F2CC8F;strokeColor=#E07A5F;fontColor=#393C56;rounded=1;" vertex="1" parent="n8KyGZuKO7ytAvBbDKDA-54">
          <mxGeometry y="57" width="192" height="8" as="geometry" />
        </mxCell>
        <mxCell id="n8KyGZuKO7ytAvBbDKDA-58" value="planScene:blob" style="text;align=left;verticalAlign=top;spacingLeft=4;spacingRight=4;overflow=hidden;rotatable=0;points=[[0,0.5],[1,0.5]];portConstraint=eastwest;labelBackgroundColor=none;fontColor=#393C56;rounded=1;" vertex="1" parent="n8KyGZuKO7ytAvBbDKDA-54">
          <mxGeometry y="65" width="192" height="26" as="geometry" />
        </mxCell>
        <mxCell id="TyVPyKYXxjt4fqLiTHCA-37" value="planFeu:blob" style="text;align=left;verticalAlign=top;spacingLeft=4;spacingRight=4;overflow=hidden;rotatable=0;points=[[0,0.5],[1,0.5]];portConstraint=eastwest;labelBackgroundColor=none;fontColor=#393C56;rounded=1;" vertex="1" parent="n8KyGZuKO7ytAvBbDKDA-54">
          <mxGeometry y="91" width="192" height="26" as="geometry" />
        </mxCell>
        <mxCell id="a5jgiMxUOnsnWHItlYc4-6" value="0,n" style="text;html=1;strokeColor=none;fillColor=none;align=center;verticalAlign=middle;whiteSpace=wrap;rounded=1;labelBackgroundColor=none;fontColor=#393C56;" vertex="1" parent="WIyWlLk6GJQsqaUBKTNV-1">
          <mxGeometry x="-745" y="2228" width="60" height="30" as="geometry" />
        </mxCell>
        <mxCell id="a5jgiMxUOnsnWHItlYc4-8" value="0,n" style="text;html=1;strokeColor=none;fillColor=none;align=center;verticalAlign=middle;whiteSpace=wrap;rounded=1;labelBackgroundColor=none;fontColor=#393C56;" vertex="1" parent="WIyWlLk6GJQsqaUBKTNV-1">
          <mxGeometry x="-522" y="820" width="60" height="30" as="geometry" />
        </mxCell>
        <mxCell id="a5jgiMxUOnsnWHItlYc4-9" value="1,1" style="text;html=1;strokeColor=none;fillColor=none;align=center;verticalAlign=middle;whiteSpace=wrap;rounded=1;labelBackgroundColor=none;fontColor=#393C56;" vertex="1" parent="WIyWlLk6GJQsqaUBKTNV-1">
          <mxGeometry x="-522" y="1220" width="60" height="30" as="geometry" />
        </mxCell>
        <mxCell id="a5jgiMxUOnsnWHItlYc4-12" value="1,1" style="text;html=1;strokeColor=none;fillColor=none;align=center;verticalAlign=middle;whiteSpace=wrap;rounded=1;labelBackgroundColor=none;fontColor=#393C56;" vertex="1" parent="WIyWlLk6GJQsqaUBKTNV-1">
          <mxGeometry x="106" y="1150" width="60" height="30" as="geometry" />
        </mxCell>
        <mxCell id="a5jgiMxUOnsnWHItlYc4-13" value="1,1" style="text;html=1;strokeColor=none;fillColor=none;align=center;verticalAlign=middle;whiteSpace=wrap;rounded=1;labelBackgroundColor=none;fontColor=#393C56;" vertex="1" parent="WIyWlLk6GJQsqaUBKTNV-1">
          <mxGeometry x="106" y="1010" width="60" height="30" as="geometry" />
        </mxCell>
        <mxCell id="n8KyGZuKO7ytAvBbDKDA-62" value="Materiel" style="swimlane;fontStyle=0;align=center;verticalAlign=top;childLayout=stackLayout;horizontal=1;startSize=31;horizontalStack=0;resizeParent=1;resizeLast=0;collapsible=1;marginBottom=0;rounded=1;shadow=0;strokeWidth=1;labelBackgroundColor=none;fillColor=#F2CC8F;strokeColor=#E07A5F;fontColor=#393C56;" vertex="1" parent="WIyWlLk6GJQsqaUBKTNV-1">
          <mxGeometry x="91" y="2345" width="190" height="120" as="geometry">
            <mxRectangle x="340" y="380" width="170" height="26" as="alternateBounds" />
          </mxGeometry>
        </mxCell>
        <mxCell id="n8KyGZuKO7ytAvBbDKDA-63" value="MaterielID : int" style="text;align=left;verticalAlign=top;spacingLeft=4;spacingRight=4;overflow=hidden;rotatable=0;points=[[0,0.5],[1,0.5]];portConstraint=eastwest;labelBackgroundColor=none;fontColor=#393C56;rounded=1;" vertex="1" parent="n8KyGZuKO7ytAvBbDKDA-62">
          <mxGeometry y="31" width="190" height="26" as="geometry" />
        </mxCell>
        <mxCell id="n8KyGZuKO7ytAvBbDKDA-64" value="" style="line;html=1;strokeWidth=1;align=left;verticalAlign=middle;spacingTop=-1;spacingLeft=3;spacingRight=3;rotatable=0;labelPosition=right;points=[];portConstraint=eastwest;labelBackgroundColor=none;fillColor=#F2CC8F;strokeColor=#E07A5F;fontColor=#393C56;rounded=1;" vertex="1" parent="n8KyGZuKO7ytAvBbDKDA-62">
          <mxGeometry y="57" width="190" height="8" as="geometry" />
        </mxCell>
        <mxCell id="n8KyGZuKO7ytAvBbDKDA-65" value="nomMateriel : str&#xa;&#xa;&#xa;" style="text;align=left;verticalAlign=top;spacingLeft=4;spacingRight=4;overflow=hidden;rotatable=0;points=[[0,0.5],[1,0.5]];portConstraint=eastwest;labelBackgroundColor=none;fontColor=#393C56;rounded=1;" vertex="1" parent="n8KyGZuKO7ytAvBbDKDA-62">
          <mxGeometry y="65" width="190" height="25" as="geometry" />
        </mxCell>
        <mxCell id="a5jgiMxUOnsnWHItlYc4-17" style="rounded=1;orthogonalLoop=1;jettySize=auto;html=1;endArrow=none;endFill=0;exitX=0.5;exitY=0;exitDx=0;exitDy=0;entryX=0.5;entryY=1;entryDx=0;entryDy=0;labelBackgroundColor=none;strokeColor=#E07A5F;fontColor=default;" edge="1" parent="WIyWlLk6GJQsqaUBKTNV-1" source="LQMEMWQrM6f3LkhfHlOk-0" target="09vynYddfmvWjdpuQkQc-38">
          <mxGeometry relative="1" as="geometry">
            <mxPoint x="5" y="2112.5" as="sourcePoint" />
            <mxPoint x="-135" y="1810" as="targetPoint" />
          </mxGeometry>
        </mxCell>
        <mxCell id="n8KyGZuKO7ytAvBbDKDA-67" style="rounded=1;orthogonalLoop=1;jettySize=auto;html=1;startArrow=none;startFill=0;endArrow=none;endFill=0;entryX=0.5;entryY=1;entryDx=0;entryDy=0;exitX=0;exitY=0.5;exitDx=0;exitDy=0;labelBackgroundColor=none;strokeColor=#E07A5F;fontColor=default;" edge="1" parent="WIyWlLk6GJQsqaUBKTNV-1" source="n8KyGZuKO7ytAvBbDKDA-65" target="LQMEMWQrM6f3LkhfHlOk-0">
          <mxGeometry relative="1" as="geometry">
            <mxPoint x="406" y="1791.0057471264367" as="sourcePoint" />
            <mxPoint x="5" y="2182.5" as="targetPoint" />
          </mxGeometry>
        </mxCell>
        <mxCell id="a5jgiMxUOnsnWHItlYc4-19" value="0,n" style="text;html=1;strokeColor=none;fillColor=none;align=center;verticalAlign=middle;whiteSpace=wrap;rounded=1;labelBackgroundColor=none;fontColor=#393C56;" vertex="1" parent="WIyWlLk6GJQsqaUBKTNV-1">
          <mxGeometry x="31" y="2390" width="60" height="30" as="geometry" />
        </mxCell>
        <mxCell id="rAAxgLf0EFrrexBY6c0V-48" style="rounded=1;orthogonalLoop=1;jettySize=auto;html=1;entryX=0;entryY=0;entryDx=0;entryDy=0;exitX=0.75;exitY=1;exitDx=0;exitDy=0;endArrow=none;endFill=0;labelBackgroundColor=none;strokeColor=#E07A5F;fontColor=default;" edge="1" parent="WIyWlLk6GJQsqaUBKTNV-1" source="09vynYddfmvWjdpuQkQc-38" target="rAAxgLf0EFrrexBY6c0V-47">
          <mxGeometry relative="1" as="geometry">
            <mxPoint x="-80" y="1810" as="sourcePoint" />
          </mxGeometry>
        </mxCell>
        <mxCell id="rAAxgLf0EFrrexBY6c0V-0" value="Participe" style="shape=rhombus;perimeter=rhombusPerimeter;whiteSpace=wrap;html=1;align=center;fillStyle=auto;labelBackgroundColor=none;fillColor=#F2CC8F;strokeColor=#E07A5F;fontColor=#393C56;rounded=1;" vertex="1" parent="WIyWlLk6GJQsqaUBKTNV-1">
          <mxGeometry x="-700" y="1725" width="160" height="100" as="geometry" />
        </mxCell>
        <mxCell id="rAAxgLf0EFrrexBY6c0V-2" style="rounded=1;orthogonalLoop=1;jettySize=auto;html=1;entryX=0.887;entryY=0.393;entryDx=0;entryDy=0;endArrow=none;endFill=0;labelBackgroundColor=none;strokeColor=#E07A5F;fontColor=default;exitX=0;exitY=0.5;exitDx=0;exitDy=0;entryPerimeter=0;" edge="1" parent="WIyWlLk6GJQsqaUBKTNV-1" source="09vynYddfmvWjdpuQkQc-38" target="rAAxgLf0EFrrexBY6c0V-0">
          <mxGeometry relative="1" as="geometry">
            <mxPoint x="-250" y="1700" as="sourcePoint" />
          </mxGeometry>
        </mxCell>
        <mxCell id="rAAxgLf0EFrrexBY6c0V-6" value="prepare" style="shape=rhombus;perimeter=rhombusPerimeter;whiteSpace=wrap;html=1;align=center;fillStyle=auto;labelBackgroundColor=none;fillColor=#F2CC8F;strokeColor=#E07A5F;fontColor=#393C56;rounded=1;" vertex="1" parent="WIyWlLk6GJQsqaUBKTNV-1">
          <mxGeometry x="-512" y="1510" width="160" height="100" as="geometry" />
        </mxCell>
        <mxCell id="rAAxgLf0EFrrexBY6c0V-11" style="rounded=1;orthogonalLoop=1;jettySize=auto;html=1;entryX=0.25;entryY=0;entryDx=0;entryDy=0;endArrow=none;endFill=0;labelBackgroundColor=none;strokeColor=#E07A5F;fontColor=default;" edge="1" parent="WIyWlLk6GJQsqaUBKTNV-1" source="rAAxgLf0EFrrexBY6c0V-9" target="n8KyGZuKO7ytAvBbDKDA-16">
          <mxGeometry relative="1" as="geometry" />
        </mxCell>
        <mxCell id="rAAxgLf0EFrrexBY6c0V-9" value="organiser" style="shape=rhombus;perimeter=rhombusPerimeter;whiteSpace=wrap;html=1;align=center;fillStyle=auto;labelBackgroundColor=none;fillColor=#F2CC8F;strokeColor=#E07A5F;fontColor=#393C56;rounded=1;" vertex="1" parent="WIyWlLk6GJQsqaUBKTNV-1">
          <mxGeometry x="-370" y="1889.5" width="160" height="100" as="geometry" />
        </mxCell>
        <mxCell id="rAAxgLf0EFrrexBY6c0V-13" style="rounded=1;orthogonalLoop=1;jettySize=auto;html=1;entryX=0.5;entryY=1;entryDx=0;entryDy=0;endArrow=none;endFill=0;exitX=0.5;exitY=0;exitDx=0;exitDy=0;labelBackgroundColor=none;strokeColor=#E07A5F;fontColor=default;" edge="1" parent="WIyWlLk6GJQsqaUBKTNV-1" source="rAAxgLf0EFrrexBY6c0V-15" target="wDKFszwRhM4f30pZds1r-86">
          <mxGeometry relative="1" as="geometry">
            <mxPoint x="-872.9790794979081" y="1398.1380753138073" as="sourcePoint" />
          </mxGeometry>
        </mxCell>
        <mxCell id="rAAxgLf0EFrrexBY6c0V-15" value="&lt;div&gt;&lt;b&gt;utilise&lt;/b&gt;&lt;/div&gt;&lt;div&gt;&lt;b&gt;quantiterMaterielArt int&lt;br&gt;&lt;/b&gt;&lt;/div&gt;" style="shape=associativeEntity;whiteSpace=wrap;html=1;align=center;labelBackgroundColor=none;fillColor=#F2CC8F;strokeColor=#E07A5F;fontColor=#393C56;rounded=1;" vertex="1" parent="WIyWlLk6GJQsqaUBKTNV-1">
          <mxGeometry x="-967" y="1415" width="170" height="70" as="geometry" />
        </mxCell>
        <mxCell id="rAAxgLf0EFrrexBY6c0V-18" value="est dans" style="shape=rhombus;perimeter=rhombusPerimeter;whiteSpace=wrap;html=1;align=center;fillStyle=auto;labelBackgroundColor=none;fillColor=#F2CC8F;strokeColor=#E07A5F;fontColor=#393C56;rounded=1;" vertex="1" parent="WIyWlLk6GJQsqaUBKTNV-1">
          <mxGeometry x="31" y="1470" width="160" height="100" as="geometry" />
        </mxCell>
        <mxCell id="TyVPyKYXxjt4fqLiTHCA-0" value="0,n" style="text;html=1;strokeColor=none;fillColor=none;align=center;verticalAlign=middle;whiteSpace=wrap;rounded=1;labelBackgroundColor=none;fontColor=#393C56;" vertex="1" parent="WIyWlLk6GJQsqaUBKTNV-1">
          <mxGeometry x="-857" y="1245" width="60" height="30" as="geometry" />
        </mxCell>
        <mxCell id="TyVPyKYXxjt4fqLiTHCA-1" value="1,1" style="text;html=1;strokeColor=none;fillColor=none;align=center;verticalAlign=middle;whiteSpace=wrap;rounded=1;labelBackgroundColor=none;fontColor=#393C56;" vertex="1" parent="WIyWlLk6GJQsqaUBKTNV-1">
          <mxGeometry x="-888" y="1385" width="60" height="30" as="geometry" />
        </mxCell>
        <mxCell id="TyVPyKYXxjt4fqLiTHCA-2" value="1,1" style="text;html=1;strokeColor=none;fillColor=none;align=center;verticalAlign=middle;whiteSpace=wrap;rounded=1;labelBackgroundColor=none;fontColor=#393C56;" vertex="1" parent="WIyWlLk6GJQsqaUBKTNV-1">
          <mxGeometry x="-872" y="1500" width="60" height="30" as="geometry" />
        </mxCell>
        <mxCell id="TyVPyKYXxjt4fqLiTHCA-5" value="1,1" style="text;html=1;strokeColor=none;fillColor=none;align=center;verticalAlign=middle;whiteSpace=wrap;rounded=1;labelBackgroundColor=none;fontColor=#393C56;" vertex="1" parent="WIyWlLk6GJQsqaUBKTNV-1">
          <mxGeometry x="-310" y="1710" width="60" height="30" as="geometry" />
        </mxCell>
        <mxCell id="TyVPyKYXxjt4fqLiTHCA-6" value="0,n" style="text;html=1;strokeColor=none;fillColor=none;align=center;verticalAlign=middle;whiteSpace=wrap;rounded=1;labelBackgroundColor=none;fontColor=#393C56;" vertex="1" parent="WIyWlLk6GJQsqaUBKTNV-1">
          <mxGeometry x="-370" y="1781" width="60" height="30" as="geometry" />
        </mxCell>
        <mxCell id="TyVPyKYXxjt4fqLiTHCA-9" value="1,n" style="text;html=1;strokeColor=none;fillColor=none;align=center;verticalAlign=middle;whiteSpace=wrap;rounded=1;labelBackgroundColor=none;fontColor=#393C56;" vertex="1" parent="WIyWlLk6GJQsqaUBKTNV-1">
          <mxGeometry x="-280" y="1803" width="60" height="30" as="geometry" />
        </mxCell>
        <mxCell id="TyVPyKYXxjt4fqLiTHCA-10" value="0,n" style="text;html=1;strokeColor=none;fillColor=none;align=center;verticalAlign=middle;whiteSpace=wrap;rounded=1;labelBackgroundColor=none;fontColor=#393C56;" vertex="1" parent="WIyWlLk6GJQsqaUBKTNV-1">
          <mxGeometry x="-300" y="2082.5" width="60" height="30" as="geometry" />
        </mxCell>
        <mxCell id="TyVPyKYXxjt4fqLiTHCA-11" value="1,n" style="text;html=1;strokeColor=none;fillColor=none;align=center;verticalAlign=middle;whiteSpace=wrap;rounded=1;labelBackgroundColor=none;fontColor=#393C56;" vertex="1" parent="WIyWlLk6GJQsqaUBKTNV-1">
          <mxGeometry x="-290" y="1630" width="60" height="30" as="geometry" />
        </mxCell>
        <mxCell id="rAAxgLf0EFrrexBY6c0V-39" style="rounded=1;orthogonalLoop=1;jettySize=auto;html=1;entryX=0;entryY=0.5;entryDx=0;entryDy=0;endArrow=none;endFill=0;labelBackgroundColor=none;strokeColor=#E07A5F;fontColor=default;" edge="1" parent="WIyWlLk6GJQsqaUBKTNV-1" source="rAAxgLf0EFrrexBY6c0V-37" target="wDKFszwRhM4f30pZds1r-3">
          <mxGeometry relative="1" as="geometry" />
        </mxCell>
        <mxCell id="rAAxgLf0EFrrexBY6c0V-37" value="Contient" style="shape=rhombus;perimeter=rhombusPerimeter;whiteSpace=wrap;html=1;align=center;fillStyle=auto;labelBackgroundColor=none;fillColor=#F2CC8F;strokeColor=#E07A5F;fontColor=#393C56;rounded=1;" vertex="1" parent="WIyWlLk6GJQsqaUBKTNV-1">
          <mxGeometry x="186" y="1654" width="160" height="100" as="geometry" />
        </mxCell>
        <mxCell id="TyVPyKYXxjt4fqLiTHCA-12" value="0,n" style="text;html=1;strokeColor=none;fillColor=none;align=center;verticalAlign=middle;whiteSpace=wrap;rounded=1;labelBackgroundColor=none;fontColor=#393C56;" vertex="1" parent="WIyWlLk6GJQsqaUBKTNV-1">
          <mxGeometry x="-545" y="1380" width="60" height="30" as="geometry" />
        </mxCell>
        <mxCell id="TyVPyKYXxjt4fqLiTHCA-13" value="1,1" style="text;html=1;strokeColor=none;fillColor=none;align=center;verticalAlign=middle;whiteSpace=wrap;rounded=1;labelBackgroundColor=none;fontColor=#393C56;" vertex="1" parent="WIyWlLk6GJQsqaUBKTNV-1">
          <mxGeometry x="-60" y="1570" width="60" height="30" as="geometry" />
        </mxCell>
        <mxCell id="rAAxgLf0EFrrexBY6c0V-41" style="rounded=1;orthogonalLoop=1;jettySize=auto;html=1;entryX=1;entryY=0.5;entryDx=0;entryDy=0;endArrow=none;endFill=0;exitX=0.406;exitY=0.915;exitDx=0;exitDy=0;exitPerimeter=0;labelBackgroundColor=none;strokeColor=#E07A5F;fontColor=default;" edge="1" parent="WIyWlLk6GJQsqaUBKTNV-1" source="rAAxgLf0EFrrexBY6c0V-40" target="wDKFszwRhM4f30pZds1r-3">
          <mxGeometry relative="1" as="geometry" />
        </mxCell>
        <mxCell id="rAAxgLf0EFrrexBY6c0V-42" style="rounded=1;orthogonalLoop=1;jettySize=auto;html=1;entryX=1;entryY=0.5;entryDx=0;entryDy=0;endArrow=none;endFill=0;labelBackgroundColor=none;strokeColor=#E07A5F;fontColor=default;" edge="1" parent="WIyWlLk6GJQsqaUBKTNV-1" source="rAAxgLf0EFrrexBY6c0V-40" target="n8KyGZuKO7ytAvBbDKDA-14">
          <mxGeometry relative="1" as="geometry" />
        </mxCell>
        <mxCell id="TyVPyKYXxjt4fqLiTHCA-15" value="0,n" style="text;html=1;strokeColor=none;fillColor=none;align=center;verticalAlign=middle;whiteSpace=wrap;rounded=1;labelBackgroundColor=none;fontColor=#393C56;" vertex="1" parent="WIyWlLk6GJQsqaUBKTNV-1">
          <mxGeometry x="-49" y="1670" width="60" height="30" as="geometry" />
        </mxCell>
        <mxCell id="rAAxgLf0EFrrexBY6c0V-40" value="est dans" style="shape=rhombus;perimeter=rhombusPerimeter;whiteSpace=wrap;html=1;align=center;fillStyle=auto;labelBackgroundColor=none;fillColor=#F2CC8F;strokeColor=#E07A5F;fontColor=#393C56;rounded=1;" vertex="1" parent="WIyWlLk6GJQsqaUBKTNV-1">
          <mxGeometry x="920" y="1482.5" width="160" height="100" as="geometry" />
        </mxCell>
        <mxCell id="rAAxgLf0EFrrexBY6c0V-45" style="rounded=1;orthogonalLoop=1;jettySize=auto;html=1;entryX=0;entryY=0.5;entryDx=0;entryDy=0;endArrow=none;endFill=0;labelBackgroundColor=none;strokeColor=#E07A5F;fontColor=default;exitX=0.974;exitY=0.5;exitDx=0;exitDy=0;exitPerimeter=0;" edge="1" parent="WIyWlLk6GJQsqaUBKTNV-1" source="rAAxgLf0EFrrexBY6c0V-43" target="n8KyGZuKO7ytAvBbDKDA-13">
          <mxGeometry relative="1" as="geometry">
            <mxPoint x="460" y="1500" as="sourcePoint" />
          </mxGeometry>
        </mxCell>
        <mxCell id="rAAxgLf0EFrrexBY6c0V-43" value="est dans" style="shape=rhombus;perimeter=rhombusPerimeter;whiteSpace=wrap;html=1;align=center;fillStyle=auto;labelBackgroundColor=none;fillColor=#F2CC8F;strokeColor=#E07A5F;fontColor=#393C56;rounded=1;" vertex="1" parent="WIyWlLk6GJQsqaUBKTNV-1">
          <mxGeometry x="300" y="1450" width="160" height="100" as="geometry" />
        </mxCell>
        <mxCell id="TyVPyKYXxjt4fqLiTHCA-14" value="0,n" style="text;html=1;strokeColor=none;fillColor=none;align=center;verticalAlign=middle;whiteSpace=wrap;rounded=1;labelBackgroundColor=none;fontColor=#393C56;" vertex="1" parent="WIyWlLk6GJQsqaUBKTNV-1">
          <mxGeometry x="121" y="1440" width="60" height="30" as="geometry" />
        </mxCell>
        <mxCell id="TyVPyKYXxjt4fqLiTHCA-16" value="0,n" style="text;html=1;strokeColor=none;fillColor=none;align=center;verticalAlign=middle;whiteSpace=wrap;rounded=1;labelBackgroundColor=none;fontColor=#393C56;" vertex="1" parent="WIyWlLk6GJQsqaUBKTNV-1">
          <mxGeometry x="518" y="1700" width="60" height="30" as="geometry" />
        </mxCell>
        <mxCell id="rAAxgLf0EFrrexBY6c0V-47" value="Transporte" style="shape=rhombus;perimeter=rhombusPerimeter;whiteSpace=wrap;html=1;align=center;fillStyle=auto;labelBackgroundColor=none;fillColor=#F2CC8F;strokeColor=#E07A5F;fontColor=#393C56;rounded=1;" vertex="1" parent="WIyWlLk6GJQsqaUBKTNV-1">
          <mxGeometry x="151" y="1982.5" width="160" height="100" as="geometry" />
        </mxCell>
        <mxCell id="rAAxgLf0EFrrexBY6c0V-49" style="rounded=1;orthogonalLoop=1;jettySize=auto;html=1;entryX=0.5;entryY=0;entryDx=0;entryDy=0;startArrow=none;startFill=0;endArrow=none;endFill=0;labelBackgroundColor=none;strokeColor=#E07A5F;fontColor=default;" edge="1" parent="WIyWlLk6GJQsqaUBKTNV-1" source="rAAxgLf0EFrrexBY6c0V-47" target="wDKFszwRhM4f30pZds1r-12">
          <mxGeometry relative="1" as="geometry" />
        </mxCell>
        <mxCell id="TyVPyKYXxjt4fqLiTHCA-24" value="0,n" style="text;html=1;strokeColor=none;fillColor=none;align=center;verticalAlign=middle;whiteSpace=wrap;rounded=1;labelBackgroundColor=none;fontColor=#393C56;" vertex="1" parent="WIyWlLk6GJQsqaUBKTNV-1">
          <mxGeometry x="570" y="1460.5" width="60" height="30" as="geometry" />
        </mxCell>
        <mxCell id="TyVPyKYXxjt4fqLiTHCA-25" value="0,n" style="text;html=1;strokeColor=none;fillColor=none;align=center;verticalAlign=middle;whiteSpace=wrap;rounded=1;labelBackgroundColor=none;fontColor=#393C56;" vertex="1" parent="WIyWlLk6GJQsqaUBKTNV-1">
          <mxGeometry x="827" y="1520" width="60" height="30" as="geometry" />
        </mxCell>
        <mxCell id="TyVPyKYXxjt4fqLiTHCA-23" value="1,1" style="text;html=1;strokeColor=none;fillColor=none;align=center;verticalAlign=middle;whiteSpace=wrap;rounded=1;labelBackgroundColor=none;fontColor=#393C56;" vertex="1" parent="WIyWlLk6GJQsqaUBKTNV-1">
          <mxGeometry x="260" y="1440" width="60" height="30" as="geometry" />
        </mxCell>
        <mxCell id="a5jgiMxUOnsnWHItlYc4-20" value="0,n" style="text;html=1;strokeColor=none;fillColor=none;align=center;verticalAlign=middle;whiteSpace=wrap;rounded=1;labelBackgroundColor=none;fontColor=#393C56;" vertex="1" parent="WIyWlLk6GJQsqaUBKTNV-1">
          <mxGeometry x="-180" y="1810" width="60" height="30" as="geometry" />
        </mxCell>
        <mxCell id="TyVPyKYXxjt4fqLiTHCA-26" value="1,1" style="text;html=1;strokeColor=none;fillColor=none;align=center;verticalAlign=middle;whiteSpace=wrap;rounded=1;labelBackgroundColor=none;fontColor=#393C56;" vertex="1" parent="WIyWlLk6GJQsqaUBKTNV-1">
          <mxGeometry x="774" y="1670" width="60" height="30" as="geometry" />
        </mxCell>
        <mxCell id="TyVPyKYXxjt4fqLiTHCA-27" value="0,n" style="text;html=1;strokeColor=none;fillColor=none;align=center;verticalAlign=middle;whiteSpace=wrap;rounded=1;labelBackgroundColor=none;fontColor=#393C56;" vertex="1" parent="WIyWlLk6GJQsqaUBKTNV-1">
          <mxGeometry x="-70" y="1811" width="60" height="30" as="geometry" />
        </mxCell>
        <mxCell id="TyVPyKYXxjt4fqLiTHCA-28" value="0,n" style="text;html=1;strokeColor=none;fillColor=none;align=center;verticalAlign=middle;whiteSpace=wrap;rounded=1;labelBackgroundColor=none;fontColor=#393C56;" vertex="1" parent="WIyWlLk6GJQsqaUBKTNV-1">
          <mxGeometry x="490" y="2123" width="60" height="30" as="geometry" />
        </mxCell>
        <mxCell id="rAAxgLf0EFrrexBY6c0V-62" style="rounded=1;orthogonalLoop=1;jettySize=auto;html=1;entryX=0.5;entryY=1;entryDx=0;entryDy=0;endArrow=none;endFill=0;labelBackgroundColor=none;strokeColor=#E07A5F;fontColor=default;" edge="1" parent="WIyWlLk6GJQsqaUBKTNV-1" source="rAAxgLf0EFrrexBY6c0V-60" target="n8KyGZuKO7ytAvBbDKDA-54">
          <mxGeometry relative="1" as="geometry" />
        </mxCell>
        <mxCell id="rAAxgLf0EFrrexBY6c0V-60" value="avoir" style="shape=rhombus;perimeter=rhombusPerimeter;whiteSpace=wrap;html=1;align=center;fillStyle=auto;labelBackgroundColor=none;fillColor=#F2CC8F;strokeColor=#E07A5F;fontColor=#393C56;rounded=1;" vertex="1" parent="WIyWlLk6GJQsqaUBKTNV-1">
          <mxGeometry x="395" y="1002" width="160" height="100" as="geometry" />
        </mxCell>
        <mxCell id="TyVPyKYXxjt4fqLiTHCA-38" value="0,n" style="text;html=1;strokeColor=none;fillColor=none;align=center;verticalAlign=middle;whiteSpace=wrap;rounded=1;labelBackgroundColor=none;fontColor=#393C56;" vertex="1" parent="WIyWlLk6GJQsqaUBKTNV-1">
          <mxGeometry x="236" y="1210" width="60" height="30" as="geometry" />
        </mxCell>
        <mxCell id="TyVPyKYXxjt4fqLiTHCA-39" value="1,1" style="text;html=1;strokeColor=none;fillColor=none;align=center;verticalAlign=middle;whiteSpace=wrap;rounded=1;labelBackgroundColor=none;fontColor=#393C56;" vertex="1" parent="WIyWlLk6GJQsqaUBKTNV-1">
          <mxGeometry x="529" y="874" width="60" height="30" as="geometry" />
        </mxCell>
        <mxCell id="TiZvxmLFOPFpKtNuPVVe-3" value="MusicienAdditionel" style="shape=rhombus;perimeter=rhombusPerimeter;whiteSpace=wrap;html=1;align=center;fillStyle=auto;labelBackgroundColor=none;fillColor=#F2CC8F;strokeColor=#E07A5F;fontColor=#393C56;rounded=1;" vertex="1" parent="WIyWlLk6GJQsqaUBKTNV-1">
          <mxGeometry x="-786" y="1946" width="160" height="100" as="geometry" />
        </mxCell>
        <mxCell id="TiZvxmLFOPFpKtNuPVVe-9" style="rounded=0;orthogonalLoop=1;jettySize=auto;html=1;entryX=0.5;entryY=1;entryDx=0;entryDy=0;endArrow=none;endFill=0;labelBackgroundColor=none;strokeColor=#E07A5F;fontColor=default;" edge="1" parent="WIyWlLk6GJQsqaUBKTNV-1" source="TiZvxmLFOPFpKtNuPVVe-5" target="rAAxgLf0EFrrexBY6c0V-15">
          <mxGeometry relative="1" as="geometry" />
        </mxCell>
        <mxCell id="TiZvxmLFOPFpKtNuPVVe-5" value="Groupe" style="swimlane;fontStyle=0;align=center;verticalAlign=top;childLayout=stackLayout;horizontal=1;startSize=31;horizontalStack=0;resizeParent=1;resizeLast=0;collapsible=1;marginBottom=0;rounded=1;shadow=0;strokeWidth=1;labelBackgroundColor=none;fillColor=#F2CC8F;strokeColor=#E07A5F;fontColor=#393C56;" vertex="1" parent="WIyWlLk6GJQsqaUBKTNV-1">
          <mxGeometry x="-976" y="1673" width="190" height="130" as="geometry">
            <mxRectangle x="340" y="380" width="170" height="26" as="alternateBounds" />
          </mxGeometry>
        </mxCell>
        <mxCell id="TiZvxmLFOPFpKtNuPVVe-6" value="GroupeID:int" style="text;align=left;verticalAlign=top;spacingLeft=4;spacingRight=4;overflow=hidden;rotatable=0;points=[[0,0.5],[1,0.5]];portConstraint=eastwest;labelBackgroundColor=none;fontColor=#393C56;rounded=1;" vertex="1" parent="TiZvxmLFOPFpKtNuPVVe-5">
          <mxGeometry y="31" width="190" height="26" as="geometry" />
        </mxCell>
        <mxCell id="TiZvxmLFOPFpKtNuPVVe-7" value="" style="line;html=1;strokeWidth=1;align=left;verticalAlign=middle;spacingTop=-1;spacingLeft=3;spacingRight=3;rotatable=0;labelPosition=right;points=[];portConstraint=eastwest;labelBackgroundColor=none;fillColor=#F2CC8F;strokeColor=#E07A5F;fontColor=#393C56;rounded=1;" vertex="1" parent="TiZvxmLFOPFpKtNuPVVe-5">
          <mxGeometry y="57" width="190" height="8" as="geometry" />
        </mxCell>
        <mxCell id="TiZvxmLFOPFpKtNuPVVe-8" value="&lt;div align=&quot;left&quot;&gt;nomGroupe:str&lt;/div&gt;&lt;div align=&quot;left&quot;&gt;&lt;br&gt;&lt;/div&gt;&lt;div&gt;&lt;br&gt;&lt;/div&gt;" style="text;html=1;strokeColor=none;fillColor=none;align=left;verticalAlign=middle;whiteSpace=wrap;rounded=0;fontColor=#393C56;labelBackgroundColor=none;" vertex="1" parent="TiZvxmLFOPFpKtNuPVVe-5">
          <mxGeometry y="65" width="190" height="65" as="geometry" />
        </mxCell>
        <mxCell id="TiZvxmLFOPFpKtNuPVVe-11" style="rounded=0;orthogonalLoop=1;jettySize=auto;html=1;entryX=0;entryY=0.5;entryDx=0;entryDy=0;endArrow=none;endFill=0;labelBackgroundColor=none;strokeColor=#E07A5F;fontColor=default;" edge="1" parent="WIyWlLk6GJQsqaUBKTNV-1" source="TiZvxmLFOPFpKtNuPVVe-10" target="TiZvxmLFOPFpKtNuPVVe-5">
          <mxGeometry relative="1" as="geometry" />
        </mxCell>
        <mxCell id="TiZvxmLFOPFpKtNuPVVe-10" value="Composer" style="shape=rhombus;perimeter=rhombusPerimeter;whiteSpace=wrap;html=1;align=center;fillStyle=auto;labelBackgroundColor=none;fillColor=#F2CC8F;strokeColor=#E07A5F;fontColor=#393C56;rounded=1;" vertex="1" parent="WIyWlLk6GJQsqaUBKTNV-1">
          <mxGeometry x="-1199" y="1665" width="160" height="100" as="geometry" />
        </mxCell>
        <mxCell id="TiZvxmLFOPFpKtNuPVVe-12" style="rounded=0;orthogonalLoop=1;jettySize=auto;html=1;entryX=0.99;entryY=0.192;entryDx=0;entryDy=0;entryPerimeter=0;endArrow=none;endFill=0;labelBackgroundColor=none;strokeColor=#E07A5F;fontColor=default;" edge="1" parent="WIyWlLk6GJQsqaUBKTNV-1" source="TiZvxmLFOPFpKtNuPVVe-10" target="wDKFszwRhM4f30pZds1r-45">
          <mxGeometry relative="1" as="geometry" />
        </mxCell>
        <mxCell id="TiZvxmLFOPFpKtNuPVVe-13" style="rounded=0;orthogonalLoop=1;jettySize=auto;html=1;endArrow=none;endFill=0;labelBackgroundColor=none;strokeColor=#E07A5F;fontColor=default;" edge="1" parent="WIyWlLk6GJQsqaUBKTNV-1" source="TiZvxmLFOPFpKtNuPVVe-8" target="rAAxgLf0EFrrexBY6c0V-0">
          <mxGeometry relative="1" as="geometry" />
        </mxCell>
        <mxCell id="TiZvxmLFOPFpKtNuPVVe-14" value="1,n" style="text;html=1;align=center;verticalAlign=middle;resizable=0;points=[];autosize=1;strokeColor=none;fillColor=none;labelBackgroundColor=none;fontColor=#393C56;" vertex="1" parent="WIyWlLk6GJQsqaUBKTNV-1">
          <mxGeometry x="-1236" y="1667" width="35" height="26" as="geometry" />
        </mxCell>
        <mxCell id="TiZvxmLFOPFpKtNuPVVe-17" value="0,n" style="text;html=1;strokeColor=none;fillColor=none;align=center;verticalAlign=middle;whiteSpace=wrap;rounded=1;labelBackgroundColor=none;fontColor=#393C56;" vertex="1" parent="WIyWlLk6GJQsqaUBKTNV-1">
          <mxGeometry x="-872" y="1635" width="60" height="30" as="geometry" />
        </mxCell>
        <mxCell id="TiZvxmLFOPFpKtNuPVVe-18" value="1,n" style="text;html=1;strokeColor=none;fillColor=none;align=center;verticalAlign=middle;whiteSpace=wrap;rounded=1;labelBackgroundColor=none;fontColor=#393C56;" vertex="1" parent="WIyWlLk6GJQsqaUBKTNV-1">
          <mxGeometry x="-1045" y="1695" width="60" height="30" as="geometry" />
        </mxCell>
        <mxCell id="TiZvxmLFOPFpKtNuPVVe-19" value="0,n" style="text;html=1;strokeColor=none;fillColor=none;align=center;verticalAlign=middle;whiteSpace=wrap;rounded=1;labelBackgroundColor=none;fontColor=#393C56;" vertex="1" parent="WIyWlLk6GJQsqaUBKTNV-1">
          <mxGeometry x="-770" y="1730" width="60" height="30" as="geometry" />
        </mxCell>
        <mxCell id="LQMEMWQrM6f3LkhfHlOk-0" value="&lt;div&gt;Necessiter&lt;/div&gt;" style="shape=rhombus;perimeter=rhombusPerimeter;whiteSpace=wrap;html=1;align=center;fillStyle=auto;labelBackgroundColor=none;fillColor=#F2CC8F;strokeColor=#E07A5F;fontColor=#393C56;rounded=1;" vertex="1" parent="WIyWlLk6GJQsqaUBKTNV-1">
          <mxGeometry x="-104" y="2058" width="160" height="100" as="geometry" />
        </mxCell>
      </root>
    </mxGraphModel>
  </diagram>
</mxfile>
